<?xml version="1.0" encoding="utf-8"?>
<!-- Generator: Adobe Illustrator 16.0.0, SVG Export Plug-In . SVG Version: 6.00 Build 0)  -->
<!DOCTYPE svg PUBLIC "-//W3C//DTD SVG 1.1//EN" "http://www.w3.org/Graphics/SVG/1.1/DTD/svg11.dtd">
<svg version="1.1" id="Layer_1" xmlns="http://www.w3.org/2000/svg" xmlns:xlink="http://www.w3.org/1999/xlink" x="0px" y="0px"
	 width="294.286px" height="120.499px" viewBox="0 0 294.286 120.499" enable-background="new 0 0 294.286 120.499"
	 xml:space="preserve">
<g>
	<polygon fill="#FFFFFF" points="214.131,0 214.131,26.76 273.885,59.128 294.286,47.815 	"/>
	<polygon fill="#FFFFFF" points="270.475,62.931 270.477,62.931 214.131,93.657 214.131,120.633 294.286,72.82 294.286,50.005 	"/>
</g>
<g>
	<polygon fill="#FFFFFF" points="0.237,50.005 0.237,72.82 80.39,120.633 80.39,93.657 24.292,63.064 24.293,63.065 	"/>
	<polygon fill="#FFFFFF" points="80.39,0 0.237,47.815 20.64,59.127 80.39,26.76 	"/>
</g>
<g>
	<path fill="#FFFFFF" d="M106.242,18.515C83.473,29.913,74.105,57.413,85.004,80.296l83.373-41.856
		C156.558,16.073,128.977,7.135,106.242,18.515z"/>
	<path fill="#FFFFFF" d="M86.014,82.305c11.841,22.311,39.384,31.214,62.093,19.846c22.741-11.384,32.114-38.831,21.277-61.7
		L86.014,82.305z"/>
</g>
<g>
	<path fill="#FFFFFF" d="M174.195,118.287c-0.209,1.205,0.21,2.212,1.264,2.212h12.997c1.266,0,2.105-0.603,2.318-1.812
		l9.852-68.496l-18.59,11.729L174.195,118.287z"/>
	<path fill="#FFFFFF" d="M207.549,2.192c0-0.805-0.631-1.81-1.473-1.81h-13.82c-1.049,0-1.682,0.605-1.893,1.81l-7.912,56.876
		l18.607-11.74L207.549,2.192z"/>
</g>
<g>
</g>
<g>
</g>
<g>
</g>
<g>
</g>
<g>
</g>
<g>
</g>
<g>
</g>
<g>
</g>
<g>
</g>
<g>
</g>
<g>
</g>
<g>
</g>
<g>
</g>
<g>
</g>
<g>
</g>
</svg>
