<?xml version="1.0" encoding="utf-8"?>
<!-- Generator: Adobe Illustrator 16.0.0, SVG Export Plug-In . SVG Version: 6.00 Build 0)  -->
<!DOCTYPE svg PUBLIC "-//W3C//DTD SVG 1.1//EN" "http://www.w3.org/Graphics/SVG/1.1/DTD/svg11.dtd">
<svg version="1.1" id="Layer_1" xmlns="http://www.w3.org/2000/svg" xmlns:xlink="http://www.w3.org/1999/xlink" x="0px" y="0px"
	 width="204.728px" height="172.616px" viewBox="0 0 204.728 172.616" enable-background="new 0 0 204.728 172.616"
	 xml:space="preserve">
<g>
	<path fill="#FFFFFF" d="M163.228,18.249l-44.75-16.5l-4.5,4l16.75,43.75l42.5,43c0,0,26-6.168,31.5-33.334L163.228,18.249z"/>
	<path fill="#FFFFFF" d="M158.241,149.76L68.73,60.249l-0.834,0.167L50.23,78.083l89.718,92.658c0,0,1.146,1.769,1.782,1.842
		c6.908,0.794,19.667-12.713,19.667-19.667C161.397,151.8,158.241,149.76,158.241,149.76z"/>
	<path fill="#FFFFFF" d="M91.146,4.538l-4.5-4l-44.75,16.5l-41.5,40.916c5.5,27.166,31.5,33.334,31.5,33.334l42.5-43L91.146,4.538z"
		/>
	<polygon fill="#FFFFFF" points="136.603,59.83 135.769,59.663 103.68,91.752 122.37,110.441 154.269,77.497 	"/>
	<path fill="#FFFFFF" d="M46.258,149.174c0,0-3.156,2.04-3.156,3.156c0,6.954,12.759,20.461,19.667,19.667
		c0.637-0.073,1.782-1.842,1.782-1.842l35.677-36.846l-18.743-19.362L46.258,149.174z"/>
</g>
<g>
</g>
<g>
</g>
<g>
</g>
<g>
</g>
<g>
</g>
<g>
</g>
<g>
</g>
<g>
</g>
<g>
</g>
<g>
</g>
<g>
</g>
<g>
</g>
<g>
</g>
<g>
</g>
<g>
</g>
</svg>
